<?xml version="1.0" encoding="iso-8859-1"?>
<!-- Generator: Adobe Illustrator 18.1.1, SVG Export Plug-In . SVG Version: 6.00 Build 0)  -->
<svg version="1.1" id="Capa_1" xmlns="http://www.w3.org/2000/svg" xmlns:xlink="http://www.w3.org/1999/xlink" x="0px" y="0px"
	 viewBox="0 0 167.748 167.748" style="enable-background:new 0 0 167.748 167.748;" xml:space="preserve">
<g>
	<g>
		<path style="fill:#010002;" d="M151.383,49.067h-4.791v61.178c0,5.549-4.499,11.916-10.06,14.201l-105.22,43.302h120.071
			c5.561,0,10.06-4.511,10.06-10.06V59.115C161.443,53.578,156.944,49.067,151.383,49.067z"/>
		<path style="fill:#010002;" d="M131.597,0.819L16.365,48.243c-5.561,2.285-10.06,8.652-10.06,14.195v98.567
			c0,5.543,4.499,8.204,10.06,5.919L131.597,119.5c5.561-2.285,10.06-8.646,10.06-14.201V6.738
			C141.657,1.2,137.158-1.467,131.597,0.819z M121.226,69.497c-4.069,1.36-7.351-0.853-7.351-4.911c0-4.069,3.288-8.449,7.351-9.804
			c4.063-1.354,7.351,0.853,7.351,4.923C128.578,63.769,125.278,68.149,121.226,69.497z"/>
	</g>
</g>
<g>
</g>
<g>
</g>
<g>
</g>
<g>
</g>
<g>
</g>
<g>
</g>
<g>
</g>
<g>
</g>
<g>
</g>
<g>
</g>
<g>
</g>
<g>
</g>
<g>
</g>
<g>
</g>
<g>
</g>
</svg>
